# xmcd CD database file
#
# Track frame offsets:
#	183
#	9520
#	19983
#	29958
#	37820
#	47420
#	56333
#	66933
#	78995
#	88358
#	96770
#	110358
#	119845
#	134208
#	144583
#
# Disc length: 2063 seconds
#
# Revision: 2
# Processed by: cddbd v1.5.2PL0 Copyright (c) Steve Scherf et al.
# Submitted via: CDex 1.51
#
DISCID=d7080d0f
DTITLE=The Ventures - Best Selection
DYEAR=1900
DGENRE=Instrumental Rock
TTITLE0=Diamond Head
TTITLE1=Pipeline
TTITLE2=Out Of Limits
TTITLE3=Ram-Bunk-Shush
TTITLE4=Penetration
TTITLE5=Rebel Rouser
TTITLE6=Cruel Sea
TTITLE7=Telstar
TTITLE8=Perfidia
TTITLE9=Hawaii Five-O
TTITLE10=Wipe Out
TTITLE11=Walk Don't Run
TTITLE12=Apach '65
TTITLE13=Journey To The Stars
TTITLE14=Slaughter On 10th Avenue
EXTD=
EXTT0=
EXTT1=
EXTT2=
EXTT3=
EXTT4=
EXTT5=
EXTT6=
EXTT7=
EXTT8=
EXTT9=
EXTT10=
EXTT11=
EXTT12=
EXTT13=
EXTT14=
PLAYORDER=
